<?xml version="1.0" encoding="iso-8859-1"?>
<!-- Generator: Adobe Illustrator 19.0.0, SVG Export Plug-In . SVG Version: 6.00 Build 0)  -->
<svg version="1.1" id="Layer_1" xmlns="http://www.w3.org/2000/svg" xmlns:xlink="http://www.w3.org/1999/xlink" x="0px" y="0px"
	 viewBox="0 0 512 512" style="enable-background:new 0 0 512 512;" xml:space="preserve">
<g>
	<g>
		<path d="M498.624,60H10.46C3.836,60,0,65.444,0,72.076v263.068v9.068v38.796v8.744v47.868C0,446.244,3.836,452,10.46,452h488.164
			c6.632,0,13.376-5.756,13.376-12.388v-47.864V387.6v-43.392v-4.472V72.076C512,65.444,505.256,60,498.624,60z M488,428H24v-24h464
			V428z M488,380H24v-24h464V380z M488,332H24V84h464V332z"/>
	</g>
</g>
<g>
	<g>
		<path d="M54.532,103.664c-4.484-4.484-12.484-4.484-16.96,0c-2.244,2.244-3.524,5.32-3.524,8.48c0,3.164,1.28,6.24,3.524,8.48
			c2.24,2.24,5.32,3.52,8.476,3.52c3.164,0,6.244-1.28,8.484-3.52c2.244-2.244,3.516-5.316,3.516-8.48
			C58.048,108.984,56.776,105.904,54.532,103.664z"/>
	</g>
</g>
<g>
	<g>
		<path d="M467.36,103.664c-4.484-4.484-12.484-4.484-16.96,0c-2.244,2.244-3.524,5.32-3.524,8.48c0,3.164,1.28,6.24,3.524,8.48
			c2.244,2.24,5.32,3.52,8.476,3.52c3.164,0,6.244-1.28,8.484-3.52c2.244-2.244,3.516-5.316,3.516-8.48
			C470.876,108.984,469.604,105.904,467.36,103.664z"/>
	</g>
</g>
<g>
	<g>
		<path d="M54.532,295.752c-4.484-4.48-12.484-4.48-16.96,0c-2.244,2.244-3.524,5.32-3.524,8.484c0,3.156,1.28,6.244,3.524,8.476
			c2.244,2.244,5.32,3.524,8.476,3.524c3.164,0,6.244-1.28,8.484-3.524c2.244-2.236,3.516-5.32,3.516-8.476
			C58.048,301.072,56.776,297.992,54.532,295.752z"/>
	</g>
</g>
<g>
	<g>
		<path d="M467.36,299.752c-4.484-4.48-12.484-4.48-16.96,0c-2.244,2.244-3.524,5.32-3.524,8.484c0,3.156,1.28,6.244,3.524,8.476
			c2.244,2.244,5.32,3.524,8.476,3.524c3.164,0,6.244-1.28,8.484-3.524c2.244-2.236,3.516-5.32,3.516-8.476
			C470.876,305.072,469.604,301.992,467.36,299.752z"/>
	</g>
</g>
<g>
	<g>
		<path d="M459.436,141.46c-18.368,0-33.592-15.02-33.592-33.392c0-2.212-2.072-4.072-4.28-4.072H83.36c-2.212,0-4,1.86-4,4.072
			c0,18.372-13.968,33.352-32.336,33.352c-2.212,0-3.024,1.824-3.024,4.04v121.368c0,2.208,0.812,4,3.024,4
			c18.368,0,32.824,14.876,32.824,33.244c0,2.212,1.3,3.928,3.512,3.928h338.204c2.212,0,4-1.72,4-3.928
			c0-18.368,15.508-33.276,33.876-33.276c2.208-0.004,4.56-1.76,4.56-3.968V145.46C464,143.244,461.648,141.46,459.436,141.46z
			 M114.772,231.676c-15.156,0-27.444-12.292-27.444-27.448s12.288-27.444,27.444-27.444s27.444,12.288,27.444,27.444
			S129.928,231.676,114.772,231.676z M306.336,247.236c-7.54-8.392-22.336-12.104-34.336-13.792v-13.768
			c8-6.956,11.556-21.432,11.556-35.868c0-25.036-12.74-31.668-28.752-31.668s-29.432,6.632-29.432,31.668
			c0,14.432,6.632,28.912,10.632,35.868v13.768c-12,1.736-26.608,5.616-33.936,14.548c-6.452-12.592-9.956-27.648-9.956-43.852
			c0-44.108,27.964-79.86,62.3-79.86c34.328,0,61.988,35.752,61.988,79.86C316.396,220.028,312.564,234.796,306.336,247.236z
			 M395.436,231.676c-15.156,0-27.444-12.292-27.444-27.448s12.288-27.444,27.444-27.444s27.444,12.288,27.444,27.444
			S410.592,231.676,395.436,231.676z"/>
	</g>
</g>
<g>
</g>
<g>
</g>
<g>
</g>
<g>
</g>
<g>
</g>
<g>
</g>
<g>
</g>
<g>
</g>
<g>
</g>
<g>
</g>
<g>
</g>
<g>
</g>
<g>
</g>
<g>
</g>
<g>
</g>
</svg>
