<svg width="28" height="28" viewBox="0 0 28 28" fill="none" xmlns="http://www.w3.org/2000/svg">
<path d="M25.0909 0H1.45454C0.654523 0 0 0.666651 0 1.48149V4.14814C0 4.96298 0.654523 5.62963 1.45454 5.62963H25.0182C25.8182 5.62963 26.4727 4.96298 26.4727 4.14814V1.48149C26.5455 0.666651 25.8909 0 25.0909 0ZM25.0909 14.8889H1.45454C0.654523 14.8889 0 15.5555 0 16.3704V19.037C0 19.8519 0.654523 20.5185 1.45454 20.5185H25.0182C25.8182 20.5185 26.4727 19.8519 26.4727 19.037V16.3704C26.5455 15.5555 25.8909 14.8889 25.0909 14.8889ZM14.7636 22.3704H1.45454C0.654523 22.3704 0 23.037 0 23.8519V26.5185C0 27.3333 0.654523 28 1.45454 28H14.7636C15.5637 28 16.2182 27.3333 16.2182 26.5185V23.8519C16.2182 23.037 15.5637 22.3704 14.7636 22.3704ZM26.5455 7.48149H1.45454C0.654523 7.48149 0 8.14814 0 8.96293V11.6296C0 12.4444 0.654523 13.1111 1.45454 13.1111H26.5455C27.3455 13.1111 28 12.4444 28 11.6296V8.96293C28 8.14814 27.3455 7.48149 26.5455 7.48149Z" fill="#0BA4DB"/>
</svg>
